<svg enable-background="new 0 0 1024 1024" viewBox="0 0 1024 1024" xmlns="http://www.w3.org/2000/svg"><circle cx="512" cy="512" fill="#607d8b" r="512"/><path d="m690.7 307.8h-357.4c-42.3 0-76.6 34.3-76.6 76.6v255.3c0 42.3 34.3 76.6 76.6 76.6h357.4c42.3 0 76.6-34.3 76.6-76.6v-255.4c0-42.3-34.3-76.5-76.6-76.5zm-10.4 51-150.2 150.1c-9.9 10-26.1 10.1-36.1.1 0 0-.1-.1-.1-.1l-150.2-150.1zm36 280.9c0 14.1-11.4 25.5-25.5 25.5h-357.5c-14.1 0-25.5-11.4-25.5-25.5v-244.9l150.1 150.1c29.9 29.9 78.3 29.9 108.3 0l150.1-150.1z" fill="#fff"/></svg>